<svg xmlns="http://www.w3.org/2000/svg" width="72.385" height="12.258" viewBox="0 0 72.385 12.258" preserveAspectRatio="none" class="gshock" role="img" aria-label="G-SHOCK"><path d="M5.167 4.63h4.642v6.07l-1.561 1.521H1.594L0 10.7V1.529L1.492 0h6.692l1.557 1.529v2.492H6.774v-.984h-3.84v6.218h3.872V7.664H5.167V4.63zm5.819 3.017h4.473V4.681h-4.473zm8.648-2.934V3.051h3.876v.973h3.049V1.53L24.95 0h-6.808l-1.526 1.562v4.509l1.626 1.607h5.2v1.594H19.6v-.937h-3v2.4l1.575 1.489h6.807l1.592-1.457V6.32l-1.54-1.607h-5.4zm15.343-.033h-3.82V0h-3.023v12.258h3.022V7.7h3.82v4.561h3.017V0h-3.016v4.68zM47.754 0l1.592 1.576V10.7l-1.578 1.525h-6.72l-1.493-1.474V1.6l1.59-1.6h6.609zM46.33 3h-3.757v6.254h3.757zm6.186-3l-1.592 1.529V10.7l1.492 1.525h6.8l1.549-1.525V7.632h-2.934v1.64h-3.839v-6.2h3.824v1.56h2.963v-3.1L59.255 0zm19.869 0H68.7l-3.274 4.521V0h-3.085v12.221h3.086v-4.39l3.22 4.391H72.3l-4.272-6.1z" fill="#ffffff"></path></svg>